<?xml version="1.0" encoding="utf-8"?>
<!-- Generator: Adobe Illustrator 24.2.3, SVG Export Plug-In . SVG Version: 6.00 Build 0)  -->
<svg version="1.1" id="Layer_1" xmlns="http://www.w3.org/2000/svg" xmlns:xlink="http://www.w3.org/1999/xlink" x="0px" y="0px"
	 width="1357px" height="626px" viewBox="0 0 1357 626" style="enable-background:new 0 0 1357 626;" xml:space="preserve">
<style type="text/css">
	.st0{fill:#FFFFFF;}
	.st1{fill:#EAAB77;}
	.st2{fill:#F89E58;}
	.st3{fill:#F7B258;}
	.st4{fill:#F9C659;}
	.st5{fill:#F9C762;}
	.st6{fill:#FADA63;}
	.st7{fill:#F8BF39;}
	.st8{fill:#F7AE42;}
	.st9{fill:#F8A059;}
	.st10{fill:#FBCF31;}
	.st11{fill:#F89E45;}
	.st12{fill:#F7995F;}
	.st13{fill:#F9A659;}
	.st14{fill:#D75E38;}
	.st15{fill:#E57025;}
	.st16{fill:#F1BE78;}
	.st17{fill:#F7CA85;}
	.st18{fill:#F7BE58;}
	.st19{fill:#C56028;}
	.st20{fill:#E2613F;}
	.st21{fill:#F0BA7A;}
	.st22{fill:#FBB256;}
	.st23{fill:#E35D25;}
	.st24{fill:#E17826;}
	.st25{fill:#F4C77A;}
	.st26{fill:#F7CF66;}
	.st27{fill:#ECC76A;}
	.st28{fill:#F7D857;}
	.st29{fill:#F9CD57;}
	.st30{fill:#FCC14C;}
	.st31{fill:#F9B353;}
	.st32{fill:#EC6144;}
	.st33{fill:#DE6E26;}
	.st34{fill:#D25642;}
	.st35{fill:#FAEF68;}
	.st36{fill:#FDE01D;}
	.st37{fill:#FFCF3F;}
	.st38{fill:#F8CD4B;}
	.st39{fill:#FDDC56;}
	.st40{fill:#FCD94C;}
	.st41{fill:#C74897;}
	.st42{fill:#A53D8B;}
	.st43{fill:#863582;}
	.st44{fill:#5D3076;}
	.st45{fill:#492B75;}
	.st46{fill:#A9539F;}
	.st47{fill:#834D99;}
	.st48{fill:#6D4599;}
	.st49{fill:#2F3890;}
	.st50{fill:#9866AA;}
	.st51{fill:#72518E;}
	.st52{fill:#472D7B;}
	.st53{fill:#2D2B70;}
	.st54{fill:#623D86;}
	.st55{fill:#87468B;}
	.st56{fill:#B65AA0;}
	.st57{fill:#8C68AB;}
	.st58{fill:#8775B4;}
	.st59{fill:#8080BC;}
	.st60{fill:#798BC5;}
	.st61{fill:#7097CE;}
	.st62{fill:#64A3D8;}
	.st63{fill:#56AEE1;}
	.st64{fill:#43B9EA;}
	.st65{fill:#5B68AF;}
	.st66{fill:#5B72B6;}
	.st67{fill:#597CBD;}
	.st68{fill:#5785C4;}
	.st69{fill:#5290CC;}
	.st70{fill:#4F9AD4;}
	.st71{fill:#4BA5DC;}
	.st72{fill:#47AFE2;}
	.st73{fill:#7462A4;}
	.st74{fill:#6F6DAC;}
	.st75{fill:#6A76B3;}
	.st76{fill:#6280BB;}
	.st77{fill:#5B89C3;}
	.st78{fill:#4F93CC;}
	.st79{fill:#429DD5;}
	.st80{fill:#2EA6DE;}
	.st81{fill:#585FA9;}
	.st82{fill:#5569B0;}
	.st83{fill:#5173B7;}
	.st84{fill:#4C7CBD;}
	.st85{fill:#4585C5;}
	.st86{fill:#3C8ECC;}
	.st87{fill:#3199D4;}
	.st88{fill:#21A2DC;}
	.st89{fill:#692F7C;}
	.st90{fill:#592972;}
	.st91{fill:#533B7A;}
</style>
<g>
	<path class="st0" d="M342.4,253.3H359l47.5,122.3h-20l-12.7-33.2h-46.5l-12.6,33.2h-20.2L342.4,253.3z M370,328l-19.3-52.5
		l-20,52.5H370z"/>
	<path class="st0" d="M420.6,375.6V253.3H473c5.4,0,10.4,1.1,15,3.4c4.6,2.3,8.5,5.3,11.8,9s5.9,8,7.7,12.7
		c1.9,4.8,2.8,9.6,2.8,14.6c0,4.1-0.6,8.1-1.7,11.9s-2.7,7.3-4.7,10.5s-4.5,6-7.5,8.4c-2.9,2.4-6.2,4.1-9.7,5.3l28.3,46.5h-21.5
		L467.4,333h-27.8v42.5h-19V375.6z M439.6,316h33.2c2.7,0,5.2-0.6,7.4-1.8c2.2-1.2,4.1-2.9,5.7-5s2.8-4.6,3.7-7.3
		c0.9-2.8,1.4-5.7,1.4-8.8c0-3.1-0.5-6-1.6-8.8s-2.5-5.2-4.2-7.2c-1.8-2.1-3.8-3.7-6.1-4.9c-2.3-1.2-4.7-1.8-7.2-1.8h-32.2
		L439.6,316L439.6,316z"/>
	<path class="st0" d="M524.2,313.6c0-7.3,1.3-14.7,3.9-22c2.6-7.3,6.4-13.8,11.4-19.6c5-5.8,11.2-10.5,18.4-14
		c7.2-3.6,15.4-5.3,24.6-5.3c11,0,20.4,2.5,28.2,7.4c7.8,4.9,13.7,11.4,17.6,19.3l-14.9,10.2c-1.7-3.7-3.7-6.8-6.1-9.3
		c-2.4-2.5-5-4.5-7.8-6s-5.8-2.6-8.8-3.2c-3.1-0.6-6-0.9-8.8-0.9c-6.3,0-11.9,1.3-16.6,3.9c-4.7,2.6-8.7,6-12,10.2
		c-3.2,4.2-5.7,9-7.3,14.3s-2.5,10.6-2.5,15.8c0,6,1,11.7,2.9,17.1s4.6,10.2,8.1,14.3c3.4,4.1,7.5,7.4,12.3,9.9
		c4.7,2.5,9.9,3.7,15.6,3.7c2.9,0,6-0.4,9.1-1.1s6.1-2,9-3.6c2.9-1.7,5.5-3.8,8-6.3c2.4-2.5,4.4-5.6,6-9.1l15.8,9.1
		c-1.9,4.6-4.6,8.6-8.1,12.1s-7.5,6.5-11.9,8.9s-9.1,4.3-14,5.5c-4.9,1.3-9.8,1.9-14.5,1.9c-8.5,0-16.2-1.8-23.2-5.5
		s-13.1-8.5-18.1-14.4c-5.1-5.9-9-12.6-11.9-20.2C525.6,329,524.2,321.4,524.2,313.6z"/>
	<path class="st0" d="M745.9,253.3v122.3h-19.2v-53.9H666v53.9h-19V253.3h19v51.2h60.7v-51.2H745.9z"/>
	<path class="st0" d="M779.8,253.3l36.3,98l36.1-98h20.2l-48.2,122.3H808l-48.3-122.3L779.8,253.3L779.8,253.3z"/>
	<path class="st0" d="M886.3,375.6V253.3h19v122.3H886.3z"/>
	<path class="st0" d="M1002.8,282c-1.1-1.3-2.8-2.6-4.9-4c-2.1-1.4-4.7-2.8-7.5-4c-2.9-1.3-6.1-2.3-9.5-3.1c-3.5-0.8-7-1.2-10.6-1.2
		c-8,0-13.9,1.5-17.7,4.5s-5.7,7.1-5.7,12.4c0,3,0.6,5.4,1.8,7.3s3,3.6,5.5,5s5.6,2.7,9.3,3.8c3.7,1.1,8.1,2.3,13.1,3.5
		c6.1,1.5,11.6,3.2,16.5,5s9.1,4.1,12.5,6.7s6,5.9,7.9,9.7c1.9,3.8,2.8,8.5,2.8,14c0,6.2-1.2,11.5-3.5,16s-5.5,8.1-9.5,10.9
		s-8.7,4.9-14,6.2c-5.3,1.3-11,2-17.1,2c-9.2,0-18-1.4-26.5-4.2c-8.5-2.8-16.3-6.9-23.2-12.3l8.7-16.5c1.5,1.5,3.6,3.2,6.4,5
		c2.8,1.8,6,3.5,9.7,5.1s7.7,2.9,12,4s8.8,1.6,13.4,1.6c7.5,0,13.2-1.3,17.3-4c4.1-2.6,6.1-6.5,6.1-11.7c0-3.1-0.8-5.7-2.3-7.8
		c-1.5-2.1-3.7-3.9-6.5-5.4c-2.8-1.6-6.3-3-10.3-4.2c-4.1-1.3-8.7-2.6-13.9-4c-6-1.6-11.2-3.3-15.7-5.1c-4.5-1.8-8.2-3.9-11.1-6.5
		c-2.9-2.5-5.2-5.5-6.7-8.9s-2.3-7.5-2.3-12.3c0-6,1.1-11.3,3.4-15.9c2.3-4.7,5.3-8.6,9.2-11.7c3.9-3.2,8.5-5.5,13.8-7.1
		s11.1-2.4,17.3-2.4c8.1,0,15.7,1.3,22.6,4c6.9,2.6,12.9,5.9,18.1,9.8L1002.8,282z"/>
	<path class="st0" d="M1034.4,375.6V253.3h19v122.3H1034.4z"/>
	<path class="st0" d="M1129.7,376.4c-8.6,0-16.4-1.7-23.5-5.3c-7.1-3.5-13.1-8.2-18.2-14s-9-12.4-11.8-19.9s-4.2-15.1-4.2-22.9
		c0-8.2,1.5-16,4.4-23.4c2.9-7.5,7-14.1,12.1-19.8c5.1-5.7,11.2-10.3,18.3-13.7c7.1-3.4,14.8-5.1,23.2-5.1c8.6,0,16.4,1.8,23.5,5.4
		c7.1,3.6,13.1,8.4,18.1,14.2c5,5.9,8.9,12.5,11.7,19.9c2.8,7.4,4.2,15,4.2,22.7c0,8.2-1.4,16-4.3,23.4c-2.9,7.5-6.9,14-12.1,19.7
		s-11.3,10.2-18.4,13.6C1145.6,374.8,1138,376.4,1129.7,376.4z M1091.4,314.4c0,5.7,0.9,11.3,2.7,16.7c1.8,5.4,4.4,10.2,7.7,14.3
		c3.3,4.1,7.4,7.4,12.1,9.9s10.1,3.7,15.9,3.7c6.1,0,11.5-1.3,16.2-3.9s8.7-6,12-10.2s5.8-9,7.5-14.3s2.5-10.7,2.5-16.2
		c0-5.9-0.9-11.5-2.7-16.8c-1.8-5.3-4.4-10-7.7-14.1c-3.3-4.1-7.4-7.3-12-9.8c-4.7-2.5-9.9-3.7-15.7-3.7c-6.1,0-11.5,1.3-16.3,3.9
		c-4.7,2.6-8.8,5.9-12,10.1c-3.3,4.1-5.8,8.9-7.5,14.2C1092.3,303.5,1091.4,308.9,1091.4,314.4z"/>
	<path class="st0" d="M1225.4,289.5v86.1h-19V253.3h14.9l68.9,88.2v-88h19.2v122.1h-15.8L1225.4,289.5z"/>
	<path class="st0" d="M1339.4,375.8c-1.6,0-3.1-0.3-4.4-0.8s-2.5-1.3-3.5-2.3s-1.7-2.1-2.3-3.4s-0.8-2.7-0.8-4.3
		c0-1.5,0.3-3,0.8-4.3s1.3-2.4,2.3-3.4s2.1-1.7,3.5-2.3c1.3-0.5,2.8-0.8,4.4-0.8s3.1,0.3,4.4,0.8s2.5,1.3,3.5,2.3s1.8,2.1,2.3,3.4
		s0.8,2.7,0.8,4.3c0,1.6-0.3,3-0.8,4.3s-1.3,2.5-2.3,3.4c-1,1-2.2,1.7-3.5,2.3C1342.5,375.5,1341,375.8,1339.4,375.8z M1339.4,374.5
		c1.4,0,2.6-0.2,3.8-0.7c1.2-0.5,2.2-1.1,3.1-1.9s1.6-1.8,2-3c0.5-1.2,0.7-2.5,0.7-3.9c0-1.3-0.2-2.6-0.7-3.7c-0.5-1.2-1.2-2.2-2-3
		c-0.9-0.8-1.9-1.5-3.1-2s-2.5-0.7-3.8-0.7c-1.4,0-2.7,0.2-3.8,0.7c-1.2,0.5-2.2,1.2-3,2c-0.9,0.8-1.5,1.8-2,3
		c-0.5,1.1-0.7,2.4-0.7,3.7c0,1.4,0.2,2.6,0.7,3.8c0.5,1.2,1.1,2.2,2,3c0.9,0.9,1.9,1.5,3,2C1336.8,374.3,1338,374.5,1339.4,374.5z
		 M1334.8,358.3h5.7c0.6,0,1.1,0.1,1.6,0.4c0.5,0.2,0.9,0.6,1.3,1s0.6,0.9,0.8,1.4c0.2,0.5,0.3,1,0.3,1.6c0,0.9-0.2,1.7-0.7,2.4
		s-1.1,1.2-1.9,1.5l3.1,5h-2.6l-2.9-4.6h-2.4v4.6h-2.3V358.3z M1340.3,364.9c0.6,0,1.1-0.2,1.4-0.6s0.5-1,0.5-1.6
		c0-0.7-0.2-1.2-0.6-1.6s-0.9-0.6-1.4-0.6h-3.1v4.5L1340.3,364.9L1340.3,364.9z"/>
</g>
<g>
	<polygon class="st1" points="139.6,373.6 149.8,349.5 129.4,349.5 	"/>
	<polygon class="st2" points="68.2,445.9 78.4,421.8 58,421.8 	"/>
	<polygon class="st3" points="58,421.8 68.2,397.7 47.8,397.7 	"/>
	<polygon class="st4" points="47.8,397.7 58,373.6 37.6,373.6 	"/>
	<polygon class="st5" points="37.6,373.6 47.8,349.5 27.4,349.5 	"/>
	<polygon class="st6" points="27.4,349.5 37.6,325.4 17.2,325.4 	"/>
	<polygon class="st6" points="47.8,349.5 58,325.4 37.6,325.4 	"/>
	<polygon class="st5" points="58,373.6 68.2,349.5 47.8,349.5 	"/>
	<polygon class="st7" points="68.2,397.7 78.4,373.6 58,373.6 	"/>
	<polygon class="st8" points="78.4,421.8 88.6,397.7 68.2,397.7 	"/>
	<polygon class="st9" points="88.6,445.9 98.8,421.8 78.4,421.8 	"/>
	<polygon class="st10" points="58,325.4 47.8,349.5 68.2,349.5 	"/>
	<polygon class="st7" points="68.2,349.5 58,373.6 78.4,373.6 	"/>
	<polygon class="st7" points="78.4,373.6 68.2,397.7 88.6,397.7 	"/>
	<polygon class="st8" points="88.6,397.7 78.4,421.8 98.8,421.8 	"/>
	<polygon class="st11" points="98.8,421.8 88.6,445.9 109,445.9 	"/>
	<polygon class="st12" points="119.2,421.8 109,445.9 129.4,445.9 	"/>
	<polygon class="st11" points="78.4,421.8 68.2,445.9 88.6,445.9 	"/>
	<polygon class="st8" points="68.2,397.7 58,421.8 78.4,421.8 	"/>
	<polygon class="st7" points="58,373.6 47.8,397.7 68.2,397.7 	"/>
	<polygon class="st7" points="47.8,349.5 37.6,373.6 58,373.6 	"/>
	<polygon class="st10" points="37.6,325.4 27.4,349.5 47.8,349.5 	"/>
	<polygon class="st13" points="98.8,373.6 88.6,397.7 109,397.7 	"/>
	<polygon class="st14" points="119.2,373.6 109,397.7 129.4,397.7 	"/>
	<polygon class="st15" points="129.4,349.5 119.2,373.6 139.6,373.6 	"/>
	<polygon class="st16" points="129.4,301.3 119.2,325.4 139.6,325.4 	"/>
	<polygon class="st13" points="109,397.7 98.8,421.8 119.2,421.8 	"/>
	<polygon class="st14" points="129.4,397.7 119.2,421.8 139.6,421.8 	"/>
	<polygon class="st15" points="139.6,373.6 129.4,397.7 149.8,397.7 	"/>
	<polygon class="st16" points="139.6,325.4 129.4,349.5 149.8,349.5 	"/>
	<polygon class="st17" points="149.8,301.3 139.6,325.4 160,325.4 	"/>
	<polygon class="st18" points="98.8,421.8 109,397.7 88.6,397.7 	"/>
	<polygon class="st19" points="119.2,421.8 129.4,397.7 109,397.7 	"/>
	<polygon class="st20" points="129.4,397.7 139.6,373.6 119.2,373.6 	"/>
	<polygon class="st1" points="129.4,349.5 139.6,325.4 119.2,325.4 	"/>
	<polygon class="st21" points="139.6,325.4 149.8,301.3 129.4,301.3 	"/>
	<polygon class="st22" points="109,445.9 119.2,421.8 98.8,421.8 	"/>
	<polygon class="st23" points="129.4,445.9 139.6,421.8 119.2,421.8 	"/>
	<polygon class="st24" points="139.6,421.8 149.8,397.7 129.4,397.7 	"/>
	<polygon class="st21" points="149.8,349.5 160,325.4 139.6,325.4 	"/>
	<polygon class="st25" points="160,325.4 170.2,301.3 149.8,301.3 	"/>
	<polygon class="st17" points="139.6,277.3 129.4,301.3 149.8,301.3 	"/>
	<polygon class="st26" points="160,277.3 149.8,301.3 170.2,301.3 	"/>
	<polygon class="st25" points="149.8,301.3 160,277.3 139.6,277.3 	"/>
	<polygon class="st27" points="180.4,325.4 190.6,301.3 170.2,301.3 	"/>
	<polygon class="st28" points="68.2,349.5 78.4,325.4 58,325.4 	"/>
	<polygon class="st29" points="78.4,373.6 88.6,349.5 68.2,349.5 	"/>
	<polygon class="st29" points="88.6,397.7 98.8,373.6 78.4,373.6 	"/>
	<polygon class="st30" points="78.4,325.4 68.2,349.5 88.6,349.5 	"/>
	<polygon class="st31" points="88.6,349.5 78.4,373.6 98.8,373.6 	"/>
	<polygon class="st21" points="129.4,301.3 139.6,277.3 119.2,277.3 	"/>
	<polygon class="st32" points="119.2,373.6 129.4,349.5 109,349.5 	"/>
	<polygon class="st33" points="119.2,325.4 109,349.5 129.4,349.5 	"/>
	<polygon class="st16" points="119.2,277.3 109,301.3 129.4,301.3 	"/>
	<polygon class="st34" points="109,397.7 119.2,373.6 98.8,373.6 	"/>
	<polygon class="st14" points="109,349.5 98.8,373.6 119.2,373.6 	"/>
	<polygon class="st35" points="17.3,325.4 27.5,301.4 7.1,301.4 	"/>
	<polygon class="st35" points="37.6,325.4 47.8,301.3 27.5,301.3 	"/>
	<polygon class="st36" points="47.8,301.3 37.6,325.4 58,325.4 	"/>
	<polygon class="st36" points="27.5,301.4 17.3,325.4 37.7,325.4 	"/>
	<polygon class="st35" points="58,325.4 68.2,301.4 47.8,301.4 	"/>
	<polygon class="st37" points="68.2,301.4 58,325.4 78.4,325.4 	"/>
	<polygon class="st25" points="139.6,277.3 149.8,253.2 129.4,253.2 	"/>
	<polygon class="st38" points="170.2,301.3 180.4,277.2 160,277.2 	"/>
	<polygon class="st17" points="129.4,253.2 119.2,277.3 139.6,277.3 	"/>
	<polygon class="st26" points="149.8,253.2 139.6,277.3 160,277.3 	"/>
	<polygon class="st26" points="180.4,277.3 170.2,301.3 190.6,301.3 	"/>
	<polygon class="st39" points="190.6,301.3 200.8,277.2 180.4,277.2 	"/>
	<polygon class="st40" points="160.4,277.3 170.6,253.2 150.2,253.2 	"/>
	<polygon class="st27" points="170.3,253.2 160.1,277.3 180.5,277.3 	"/>
	<polygon class="st38" points="190.7,253.2 180.5,277.3 200.9,277.3 	"/>
	<polygon class="st39" points="180.5,277.3 190.7,253.2 170.3,253.2 	"/>
	<polygon class="st40" points="200.8,277.3 211,253.2 190.6,253.2 	"/>
	<polygon class="st41" points="27,301.3 47.5,301.3 37.3,277 	"/>
	<polygon class="st42" points="37.3,277 57.8,277 47.5,252.8 	"/>
	<polygon class="st43" points="47.5,252.8 68.1,252.8 57.8,228.5 	"/>
	<polygon class="st44" points="57.8,228.5 78.3,228.5 68.1,204.3 	"/>
	<polygon class="st45" points="68.1,204.3 88.6,204.3 78.3,180 	"/>
	<g>
		<polygon class="st46" points="47.5,301.3 68.1,301.3 57.8,277 		"/>
		<polygon class="st47" points="57.8,277 78.3,277 68.1,252.8 		"/>
		<polygon class="st48" points="68.1,252.8 88.6,252.8 78.3,228.5 		"/>
		<polygon class="st49" points="78.3,228.5 98.9,228.5 88.6,204.3 		"/>
	</g>
	<g>
		<polygon class="st50" points="78.3,277 57.8,277 68.1,301.3 		"/>
		<polygon class="st51" points="88.6,252.8 68.1,252.8 78.3,277 		"/>
		<polygon class="st52" points="98.9,228.5 78.3,228.5 88.6,252.8 		"/>
	</g>
	<g>
		<polygon class="st53" points="88.6,204.3 68.1,204.3 78.3,228.5 		"/>
		<polygon class="st54" points="78.3,228.5 57.8,228.5 68.1,252.8 		"/>
		<polygon class="st55" points="68.1,252.8 47.5,252.8 57.8,277 		"/>
		<polygon class="st56" points="57.8,277 37.3,277 47.5,301.3 		"/>
	</g>
	<polygon class="st57" points="98.9,180 78.3,180 88.6,204.3 	"/>
	<polygon class="st58" points="109.1,204.3 88.6,204.3 98.9,228.5 	"/>
	<polygon class="st59" points="119.4,228.5 98.9,228.5 109.1,252.8 	"/>
	<polygon class="st60" points="129.6,252.8 109.1,252.8 119.4,277 	"/>
	<polygon class="st61" points="139.9,277 119.4,277 129.6,301.3 	"/>
	<polygon class="st62" points="150.2,301.3 129.6,301.3 139.9,325.5 	"/>
	<polygon class="st63" points="160.4,325.5 139.9,325.5 150.2,349.7 	"/>
	<polygon class="st64" points="170.7,349.7 150.2,349.7 160.4,374 	"/>
	<polygon class="st65" points="119.4,180 98.9,180 109.1,204.3 	"/>
	<polygon class="st66" points="129.6,204.3 109.1,204.3 119.4,228.5 	"/>
	<polygon class="st67" points="139.9,228.5 119.4,228.5 129.6,252.8 	"/>
	<polygon class="st68" points="150.2,252.8 129.6,252.8 139.9,277 	"/>
	<polygon class="st69" points="160.4,277 139.9,277 150.2,301.3 	"/>
	<polygon class="st70" points="170.7,301.3 150.2,301.3 160.4,325.5 	"/>
	<polygon class="st71" points="181,325.5 160.4,325.5 170.7,349.7 	"/>
	<polygon class="st72" points="191.2,349.7 170.7,349.7 181,374 	"/>
	<polygon class="st73" points="88.6,204.3 109.1,204.3 98.9,180 	"/>
	<polygon class="st74" points="98.9,228.5 119.4,228.5 109.1,204.3 	"/>
	<polygon class="st75" points="109.1,252.8 129.6,252.8 119.4,228.5 	"/>
	<polygon class="st76" points="119.4,277 139.9,277 129.6,252.8 	"/>
	<polygon class="st77" points="129.6,301.3 150.2,301.3 139.9,277 	"/>
	<polygon class="st78" points="139.9,325.5 160.4,325.5 150.2,301.3 	"/>
	<polygon class="st79" points="150.2,349.7 170.7,349.7 160.4,325.5 	"/>
	<polygon class="st80" points="160.4,374 181,374 170.7,349.7 	"/>
	<polygon class="st81" points="109.1,204.3 129.6,204.3 119.4,180 	"/>
	<polygon class="st82" points="119.4,228.5 139.9,228.5 129.6,204.3 	"/>
	<polygon class="st83" points="129.6,252.8 150.2,252.8 139.9,228.5 	"/>
	<polygon class="st84" points="139.9,277 160.4,277 150.2,252.8 	"/>
	<polygon class="st85" points="150.2,301.3 170.7,301.3 160.4,277 	"/>
	<polygon class="st86" points="160.4,325.5 181,325.5 170.7,301.3 	"/>
	<polygon class="st87" points="170.7,349.7 191.2,349.7 181,325.5 	"/>
	<polygon class="st88" points="181,374 201.5,374 191.2,349.7 	"/>
	<polygon class="st57" points="78.3,180 57.8,180 68.1,204.3 	"/>
	<polygon class="st58" points="88.6,204.3 68.1,204.3 78.3,228.5 	"/>
	<polygon class="st59" points="98.9,228.5 78.3,228.5 88.6,252.7 	"/>
	<polygon class="st60" points="109.1,252.7 88.6,252.7 98.9,276.9 	"/>
	<polygon class="st61" points="119.4,276.9 98.9,276.9 109.1,301.1 	"/>
	<polygon class="st62" points="129.6,301.1 109.1,301.1 119.4,325.4 	"/>
	<polygon class="st63" points="139.9,325.3 119.4,325.3 129.6,349.6 	"/>
	<polygon class="st64" points="150.2,349.5 129.6,349.5 139.9,373.8 	"/>
	<polygon class="st64" points="160.2,373.4 139.6,373.4 149.9,397.7 	"/>
	<g>
		<polygon class="st41" points="6.5,301.3 27,301.3 16.8,277 		"/>
		<polygon class="st42" points="16.8,277 37.3,277 27,252.8 		"/>
		<polygon class="st43" points="27,252.8 47.5,252.8 37.3,228.5 		"/>
		<polygon class="st89" points="37.3,228.5 57.8,228.5 47.5,204.3 		"/>
		<polygon class="st90" points="47.5,204.3 68.1,204.3 57.8,180 		"/>
	</g>
	<polygon class="st91" points="68.1,204.3 47.6,204.3 57.8,228.5 	"/>
	<polygon class="st55" points="57.8,228.5 37.3,228.5 47.6,252.8 	"/>
	<polygon class="st55" points="47.6,252.8 27,252.8 37.3,277 	"/>
	<polygon class="st56" points="37.3,277 16.8,277 27,301.3 	"/>
	<polygon class="st73" points="68,204.2 88.5,204.2 78.3,179.9 	"/>
	<polygon class="st74" points="78.3,228.4 98.8,228.4 88.5,204.2 	"/>
	<polygon class="st75" points="88.5,252.7 109.1,252.7 98.8,228.4 	"/>
	<polygon class="st76" points="98.8,276.9 119.3,276.9 109.1,252.7 	"/>
	<polygon class="st77" points="109.1,301.2 129.6,301.2 119.3,276.9 	"/>
	<polygon class="st78" points="119.3,325.4 139.8,325.4 129.6,301.2 	"/>
	<polygon class="st79" points="129.6,349.6 150.1,349.6 139.8,325.4 	"/>
	<polygon class="st80" points="139.8,373.9 160.4,373.9 150.1,349.6 	"/>
	<polygon class="st64" points="180.7,373.5 160.2,373.5 170.5,397.8 	"/>
	<polygon class="st72" points="201.3,373.5 180.7,373.5 191,397.8 	"/>
	<polygon class="st80" points="170.5,397.8 191,397.8 180.7,373.5 	"/>
	<polygon class="st88" points="191,397.8 211.5,397.8 201.3,373.5 	"/>
	<polygon class="st80" points="149.9,397.7 170.4,397.7 160.2,373.4 	"/>
	<polygon class="st79" points="180.7,422 191,397.8 170.5,397.8 	"/>
	<polygon class="st87" points="201.3,422 211.5,397.8 191,397.8 	"/>
	<polygon class="st80" points="170.4,397.7 160.2,421.9 180.7,421.9 	"/>
	<polygon class="st72" points="191,397.8 180.7,422 201.3,422 	"/>
	<polygon class="st64" points="211.5,397.8 201.3,422 221.8,422 	"/>
	<polygon class="st80" points="180.7,421.8 170.4,446.1 190.9,446.1 	"/>
	<polygon class="st72" points="201.2,421.8 190.9,446.1 211.5,446.1 	"/>
	<polygon class="st64" points="221.7,421.8 211.5,446.1 232,446.1 	"/>
	<polygon class="st79" points="170.5,446.1 180.7,421.8 160.2,421.8 	"/>
	<polygon class="st79" points="160.2,421.9 170.4,397.7 149.9,397.7 	"/>
	<polygon class="st79" points="190.9,446.1 201.2,421.8 180.7,421.8 	"/>
	<polygon class="st87" points="211.5,446.1 221.7,421.8 201.2,421.8 	"/>
</g>
</svg>
