<svg xmlns="http://www.w3.org/2000/svg" xmlns:xlink="http://www.w3.org/1999/xlink" id="Layer_1" x="0px" y="0px" viewBox="0 0 146.6 33.2" style="enable-background:new 0 0 146.6 33.2;" xml:space="preserve">
<style type="text/css">
	.st0{fill:#231F20;}
	.st1{fill:#EAAB77;}
	.st2{fill:#F89E58;}
	.st3{fill:#F7B258;}
	.st4{fill:#F9C659;}
	.st5{fill:#F9C762;}
	.st6{fill:#FADA63;}
	.st7{fill:#F8BF39;}
	.st8{fill:#F7AE42;}
	.st9{fill:#F8A059;}
	.st10{fill:#FBCF31;}
	.st11{fill:#F89E45;}
	.st12{fill:#F7995F;}
	.st13{fill:#F9A659;}
	.st14{fill:#D75E38;}
	.st15{fill:#E57025;}
	.st16{fill:#F1BE78;}
	.st17{fill:#F7CA85;}
	.st18{fill:#F7BE58;}
	.st19{fill:#C56028;}
	.st20{fill:#E2613F;}
	.st21{fill:#F0BA7A;}
	.st22{fill:#FBB256;}
	.st23{fill:#E35D25;}
	.st24{fill:#E17826;}
	.st25{fill:#F4C77A;}
	.st26{fill:#F7CF66;}
	.st27{fill:#ECC76A;}
	.st28{fill:#F7D857;}
	.st29{fill:#F9CD57;}
	.st30{fill:#FCC14C;}
	.st31{fill:#F9B353;}
	.st32{fill:#EC6144;}
	.st33{fill:#DE6E26;}
	.st34{fill:#D25642;}
	.st35{fill:#FAEF68;}
	.st36{fill:#FDE01D;}
	.st37{fill:#FFCF3F;}
	.st38{fill:#F8CD4B;}
	.st39{fill:#FDDC56;}
	.st40{fill:#FCD94C;}
	.st41{fill:#C74897;}
	.st42{fill:#A53D8B;}
	.st43{fill:#863582;}
	.st44{fill:#5D3076;}
	.st45{fill:#492B75;}
	.st46{fill:#A9539F;}
	.st47{fill:#834D99;}
	.st48{fill:#6D4599;}
	.st49{fill:#2F3890;}
	.st50{fill:#9866AA;}
	.st51{fill:#72518E;}
	.st52{fill:#472D7B;}
	.st53{fill:#2D2B70;}
	.st54{fill:#623D86;}
	.st55{fill:#87468B;}
	.st56{fill:#B65AA0;}
	.st57{fill:#8C68AB;}
	.st58{fill:#8775B4;}
	.st59{fill:#8080BC;}
	.st60{fill:#798BC5;}
	.st61{fill:#7097CE;}
	.st62{fill:#64A3D8;}
	.st63{fill:#56AEE1;}
	.st64{fill:#43B9EA;}
	.st65{fill:#5B68AF;}
	.st66{fill:#5B72B6;}
	.st67{fill:#597CBD;}
	.st68{fill:#5785C4;}
	.st69{fill:#5290CC;}
	.st70{fill:#4F9AD4;}
	.st71{fill:#4BA5DC;}
	.st72{fill:#47AFE2;}
	.st73{fill:#7462A4;}
	.st74{fill:#6F6DAC;}
	.st75{fill:#6A76B3;}
	.st76{fill:#6280BB;}
	.st77{fill:#5B89C3;}
	.st78{fill:#4F93CC;}
	.st79{fill:#429DD5;}
	.st80{fill:#2EA6DE;}
	.st81{fill:#585FA9;}
	.st82{fill:#5569B0;}
	.st83{fill:#5173B7;}
	.st84{fill:#4C7CBD;}
	.st85{fill:#4585C5;}
	.st86{fill:#3C8ECC;}
	.st87{fill:#3199D4;}
	.st88{fill:#21A2DC;}
	.st89{fill:#692F7C;}
	.st90{fill:#592972;}
	.st91{fill:#533B7A;}
</style>
<g>
	<g>
		<path class="st0" d="M39.3,10.5H41l4.8,12.4h-2l-1.3-3.4h-4.7l-1.3,3.4h-2L39.3,10.5z M42.1,18.1l-2-5.3l-2,5.3H42.1z"></path>
		<path class="st0" d="M47.2,22.9V10.5h5.3c0.5,0,1.1,0.1,1.5,0.3c0.5,0.2,0.9,0.5,1.2,0.9c0.3,0.4,0.6,0.8,0.8,1.3    c0.2,0.5,0.3,1,0.3,1.5c0,0.4-0.1,0.8-0.2,1.2c-0.1,0.4-0.3,0.7-0.5,1.1c-0.2,0.3-0.5,0.6-0.8,0.8c-0.3,0.2-0.6,0.4-1,0.5l2.9,4.7    h-2.2l-2.6-4.3h-2.8v4.3H47.2z M49.1,16.9h3.4c0.3,0,0.5-0.1,0.7-0.2c0.2-0.1,0.4-0.3,0.6-0.5c0.2-0.2,0.3-0.5,0.4-0.7    c0.1-0.3,0.1-0.6,0.1-0.9c0-0.3-0.1-0.6-0.2-0.9c-0.1-0.3-0.3-0.5-0.4-0.7c-0.2-0.2-0.4-0.4-0.6-0.5c-0.2-0.1-0.5-0.2-0.7-0.2    h-3.3V16.9z"></path>
		<path class="st0" d="M57.7,16.6c0-0.7,0.1-1.5,0.4-2.2c0.3-0.7,0.6-1.4,1.2-2c0.5-0.6,1.1-1.1,1.9-1.4c0.7-0.4,1.6-0.5,2.5-0.5    c1.1,0,2.1,0.3,2.8,0.7c0.8,0.5,1.4,1.2,1.8,2l-1.5,1c-0.2-0.4-0.4-0.7-0.6-0.9c-0.2-0.3-0.5-0.5-0.8-0.6    c-0.3-0.2-0.6-0.3-0.9-0.3c-0.3-0.1-0.6-0.1-0.9-0.1c-0.6,0-1.2,0.1-1.7,0.4c-0.5,0.3-0.9,0.6-1.2,1c-0.3,0.4-0.6,0.9-0.7,1.4    c-0.2,0.5-0.2,1.1-0.2,1.6c0,0.6,0.1,1.2,0.3,1.7c0.2,0.5,0.5,1,0.8,1.4c0.3,0.4,0.8,0.8,1.2,1c0.5,0.3,1,0.4,1.6,0.4    c0.3,0,0.6,0,0.9-0.1c0.3-0.1,0.6-0.2,0.9-0.4c0.3-0.2,0.6-0.4,0.8-0.6c0.2-0.3,0.4-0.6,0.6-0.9l1.6,0.9c-0.2,0.5-0.5,0.9-0.8,1.2    c-0.4,0.4-0.8,0.7-1.2,0.9c-0.4,0.2-0.9,0.4-1.4,0.6C64.5,23,64,23,63.5,23c-0.9,0-1.6-0.2-2.4-0.6c-0.7-0.4-1.3-0.9-1.8-1.5    c-0.5-0.6-0.9-1.3-1.2-2C57.8,18.2,57.7,17.4,57.7,16.6z"></path>
		<path class="st0" d="M80.1,10.5v12.4h-1.9v-5.5H72v5.5h-1.9V10.5H72v5.2h6.1v-5.2H80.1z"></path>
		<path class="st0" d="M83.6,10.5l3.7,9.9l3.7-9.9h2l-4.9,12.4h-1.6l-4.9-12.4H83.6z"></path>
		<path class="st0" d="M94.4,22.9V10.5h1.9v12.4H94.4z"></path>
		<path class="st0" d="M106.1,13.5c-0.1-0.1-0.3-0.3-0.5-0.4c-0.2-0.1-0.5-0.3-0.8-0.4c-0.3-0.1-0.6-0.2-1-0.3    c-0.3-0.1-0.7-0.1-1.1-0.1c-0.8,0-1.4,0.2-1.8,0.5c-0.4,0.3-0.6,0.7-0.6,1.3c0,0.3,0.1,0.5,0.2,0.7c0.1,0.2,0.3,0.4,0.6,0.5    c0.3,0.1,0.6,0.3,0.9,0.4c0.4,0.1,0.8,0.2,1.3,0.4c0.6,0.2,1.2,0.3,1.7,0.5c0.5,0.2,0.9,0.4,1.3,0.7c0.3,0.3,0.6,0.6,0.8,1    c0.2,0.4,0.3,0.9,0.3,1.4c0,0.6-0.1,1.2-0.4,1.6c-0.2,0.5-0.6,0.8-1,1.1c-0.4,0.3-0.9,0.5-1.4,0.6c-0.5,0.1-1.1,0.2-1.7,0.2    c-0.9,0-1.8-0.1-2.7-0.4c-0.9-0.3-1.6-0.7-2.3-1.2l0.9-1.7c0.1,0.2,0.4,0.3,0.6,0.5c0.3,0.2,0.6,0.4,1,0.5    c0.4,0.2,0.8,0.3,1.2,0.4c0.4,0.1,0.9,0.2,1.4,0.2c0.8,0,1.3-0.1,1.8-0.4c0.4-0.3,0.6-0.7,0.6-1.2c0-0.3-0.1-0.6-0.2-0.8    c-0.2-0.2-0.4-0.4-0.7-0.5c-0.3-0.2-0.6-0.3-1-0.4c-0.4-0.1-0.9-0.3-1.4-0.4c-0.6-0.2-1.1-0.3-1.6-0.5c-0.5-0.2-0.8-0.4-1.1-0.7    c-0.3-0.3-0.5-0.6-0.7-0.9c-0.2-0.3-0.2-0.8-0.2-1.2c0-0.6,0.1-1.1,0.3-1.6c0.2-0.5,0.5-0.9,0.9-1.2c0.4-0.3,0.9-0.6,1.4-0.7    c0.5-0.2,1.1-0.2,1.8-0.2c0.8,0,1.6,0.1,2.3,0.4c0.7,0.3,1.3,0.6,1.8,1L106.1,13.5z"></path>
		<path class="st0" d="M109.3,22.9V10.5h1.9v12.4H109.3z"></path>
		<path class="st0" d="M119,23c-0.9,0-1.7-0.2-2.4-0.5c-0.7-0.4-1.3-0.8-1.8-1.4c-0.5-0.6-0.9-1.3-1.2-2c-0.3-0.8-0.4-1.5-0.4-2.3    c0-0.8,0.1-1.6,0.4-2.4c0.3-0.8,0.7-1.4,1.2-2c0.5-0.6,1.1-1,1.9-1.4c0.7-0.3,1.5-0.5,2.3-0.5c0.9,0,1.7,0.2,2.4,0.5    c0.7,0.4,1.3,0.8,1.8,1.4c0.5,0.6,0.9,1.3,1.2,2c0.3,0.7,0.4,1.5,0.4,2.3c0,0.8-0.1,1.6-0.4,2.4c-0.3,0.8-0.7,1.4-1.2,2    c-0.5,0.6-1.1,1-1.9,1.4C120.6,22.8,119.8,23,119,23z M115.1,16.7c0,0.6,0.1,1.1,0.3,1.7c0.2,0.5,0.4,1,0.8,1.4    c0.3,0.4,0.7,0.8,1.2,1c0.5,0.3,1,0.4,1.6,0.4c0.6,0,1.2-0.1,1.6-0.4c0.5-0.3,0.9-0.6,1.2-1c0.3-0.4,0.6-0.9,0.8-1.4    c0.2-0.5,0.3-1.1,0.3-1.6c0-0.6-0.1-1.2-0.3-1.7c-0.2-0.5-0.4-1-0.8-1.4c-0.3-0.4-0.7-0.7-1.2-1c-0.5-0.2-1-0.4-1.6-0.4    c-0.6,0-1.2,0.1-1.6,0.4c-0.5,0.3-0.9,0.6-1.2,1c-0.3,0.4-0.6,0.9-0.8,1.4C115.2,15.6,115.1,16.2,115.1,16.7z"></path>
		<path class="st0" d="M128.7,14.2v8.7h-1.9V10.5h1.5l7,8.9v-8.9h1.9v12.4h-1.6L128.7,14.2z"></path>
		<path class="st0" d="M140.2,22.9c-0.2,0-0.3,0-0.4-0.1c-0.1-0.1-0.3-0.1-0.4-0.2c-0.1-0.1-0.2-0.2-0.2-0.3    c-0.1-0.1-0.1-0.3-0.1-0.4c0-0.2,0-0.3,0.1-0.4c0.1-0.1,0.1-0.2,0.2-0.3c0.1-0.1,0.2-0.2,0.4-0.2c0.1-0.1,0.3-0.1,0.4-0.1    c0.2,0,0.3,0,0.4,0.1c0.1,0.1,0.3,0.1,0.4,0.2c0.1,0.1,0.2,0.2,0.2,0.3c0.1,0.1,0.1,0.3,0.1,0.4c0,0.2,0,0.3-0.1,0.4    c-0.1,0.1-0.1,0.2-0.2,0.3c-0.1,0.1-0.2,0.2-0.4,0.2C140.5,22.9,140.4,22.9,140.2,22.9z M140.2,22.8c0.1,0,0.3,0,0.4-0.1    c0.1,0,0.2-0.1,0.3-0.2c0.1-0.1,0.2-0.2,0.2-0.3c0-0.1,0.1-0.2,0.1-0.4c0-0.1,0-0.3-0.1-0.4c0-0.1-0.1-0.2-0.2-0.3    c-0.1-0.1-0.2-0.2-0.3-0.2c-0.1,0-0.2-0.1-0.4-0.1c-0.1,0-0.3,0-0.4,0.1c-0.1,0-0.2,0.1-0.3,0.2c-0.1,0.1-0.2,0.2-0.2,0.3    c0,0.1-0.1,0.2-0.1,0.4c0,0.1,0,0.3,0.1,0.4c0,0.1,0.1,0.2,0.2,0.3c0.1,0.1,0.2,0.2,0.3,0.2C139.9,22.8,140.1,22.8,140.2,22.8z     M139.7,21.2h0.6c0.1,0,0.1,0,0.2,0c0.1,0,0.1,0.1,0.1,0.1c0,0,0.1,0.1,0.1,0.1c0,0.1,0,0.1,0,0.2c0,0.1,0,0.2-0.1,0.2    c0,0.1-0.1,0.1-0.2,0.1l0.3,0.5h-0.3l-0.3-0.5H140v0.5h-0.2V21.2z M140.3,21.8c0.1,0,0.1,0,0.1-0.1c0,0,0.1-0.1,0.1-0.2    c0-0.1,0-0.1-0.1-0.2c0,0-0.1-0.1-0.1-0.1H140v0.5H140.3z"></path>
	</g>
	<g>
		<polygon class="st1" points="18.8,22.7 19.8,20.3 17.7,20.3   "></polygon>
		<polygon class="st2" points="11.5,30 12.6,27.6 10.5,27.6   "></polygon>
		<polygon class="st3" points="10.5,27.6 11.5,25.2 9.5,25.2   "></polygon>
		<polygon class="st4" points="9.5,25.2 10.5,22.7 8.4,22.7   "></polygon>
		<polygon class="st5" points="8.4,22.7 9.5,20.3 7.4,20.3   "></polygon>
		<polygon class="st6" points="7.4,20.3 8.4,17.8 6.4,17.8   "></polygon>
		<polygon class="st6" points="9.5,20.3 10.5,17.8 8.4,17.8   "></polygon>
		<polygon class="st5" points="10.5,22.7 11.5,20.3 9.5,20.3   "></polygon>
		<polygon class="st7" points="11.5,25.2 12.6,22.7 10.5,22.7   "></polygon>
		<polygon class="st8" points="12.6,27.6 13.6,25.2 11.5,25.2   "></polygon>
		<polygon class="st9" points="13.6,30 14.6,27.6 12.6,27.6   "></polygon>
		<polygon class="st10" points="10.5,17.8 9.5,20.3 11.5,20.3   "></polygon>
		<polygon class="st7" points="11.5,20.3 10.5,22.7 12.6,22.7   "></polygon>
		<polygon class="st7" points="12.6,22.7 11.5,25.2 13.6,25.2   "></polygon>
		<polygon class="st8" points="13.6,25.2 12.6,27.6 14.6,27.6   "></polygon>
		<polygon class="st11" points="14.6,27.6 13.6,30 15.7,30   "></polygon>
		<polygon class="st12" points="16.7,27.6 15.7,30 17.7,30   "></polygon>
		<polygon class="st11" points="12.6,27.6 11.5,30 13.6,30   "></polygon>
		<polygon class="st8" points="11.5,25.2 10.5,27.6 12.6,27.6   "></polygon>
		<polygon class="st7" points="10.5,22.7 9.5,25.2 11.5,25.2   "></polygon>
		<polygon class="st7" points="9.5,20.3 8.4,22.7 10.5,22.7   "></polygon>
		<polygon class="st10" points="8.4,17.8 7.4,20.3 9.5,20.3   "></polygon>
		<polygon class="st13" points="14.6,22.7 13.6,25.2 15.7,25.2   "></polygon>
		<polygon class="st14" points="16.7,22.7 15.7,25.2 17.7,25.2   "></polygon>
		<polygon class="st15" points="17.7,20.3 16.7,22.7 18.8,22.7   "></polygon>
		<polygon class="st16" points="17.7,15.4 16.7,17.8 18.8,17.8   "></polygon>
		<polygon class="st13" points="15.7,25.2 14.6,27.6 16.7,27.6   "></polygon>
		<polygon class="st14" points="17.7,25.2 16.7,27.6 18.8,27.6   "></polygon>
		<polygon class="st15" points="18.8,22.7 17.7,25.2 19.8,25.2   "></polygon>
		<polygon class="st16" points="18.8,17.8 17.7,20.3 19.8,20.3   "></polygon>
		<polygon class="st17" points="19.8,15.4 18.8,17.8 20.8,17.8   "></polygon>
		<polygon class="st18" points="14.6,27.6 15.7,25.2 13.6,25.2   "></polygon>
		<polygon class="st19" points="16.7,27.6 17.7,25.2 15.7,25.2   "></polygon>
		<polygon class="st20" points="17.7,25.2 18.8,22.7 16.7,22.7   "></polygon>
		<polygon class="st1" points="17.7,20.3 18.8,17.8 16.7,17.8   "></polygon>
		<polygon class="st21" points="18.8,17.8 19.8,15.4 17.7,15.4   "></polygon>
		<polygon class="st22" points="15.7,30 16.7,27.6 14.6,27.6   "></polygon>
		<polygon class="st23" points="17.7,30 18.8,27.6 16.7,27.6   "></polygon>
		<polygon class="st24" points="18.8,27.6 19.8,25.2 17.7,25.2   "></polygon>
		<polygon class="st21" points="19.8,20.3 20.8,17.8 18.8,17.8   "></polygon>
		<polygon class="st25" points="20.8,17.8 21.9,15.4 19.8,15.4   "></polygon>
		<polygon class="st17" points="18.8,13 17.7,15.4 19.8,15.4   "></polygon>
		<polygon class="st26" points="20.8,13 19.8,15.4 21.9,15.4   "></polygon>
		<polygon class="st25" points="19.8,15.4 20.8,13 18.8,13   "></polygon>
		<polygon class="st27" points="22.9,17.8 23.9,15.4 21.9,15.4   "></polygon>
		<polygon class="st28" points="11.5,20.3 12.6,17.8 10.5,17.8   "></polygon>
		<polygon class="st29" points="12.6,22.7 13.6,20.3 11.5,20.3   "></polygon>
		<polygon class="st29" points="13.6,25.2 14.6,22.7 12.6,22.7   "></polygon>
		<polygon class="st30" points="12.6,17.8 11.5,20.3 13.6,20.3   "></polygon>
		<polygon class="st31" points="13.6,20.3 12.6,22.7 14.6,22.7   "></polygon>
		<polygon class="st21" points="17.7,15.4 18.8,13 16.7,13   "></polygon>
		<polygon class="st32" points="16.7,22.7 17.7,20.3 15.7,20.3   "></polygon>
		<polygon class="st33" points="16.7,17.8 15.7,20.3 17.7,20.3   "></polygon>
		<polygon class="st16" points="16.7,13 15.7,15.4 17.7,15.4   "></polygon>
		<polygon class="st34" points="15.7,25.2 16.7,22.7 14.6,22.7   "></polygon>
		<polygon class="st14" points="15.7,20.3 14.6,22.7 16.7,22.7   "></polygon>
		<polygon class="st35" points="6.4,17.8 7.4,15.4 5.4,15.4   "></polygon>
		<polygon class="st35" points="8.4,17.8 9.5,15.4 7.4,15.4   "></polygon>
		<polygon class="st36" points="9.5,15.4 8.4,17.8 10.5,17.8   "></polygon>
		<polygon class="st36" points="7.4,15.4 6.4,17.8 8.5,17.8   "></polygon>
		<polygon class="st35" points="10.5,17.8 11.5,15.4 9.5,15.4   "></polygon>
		<polygon class="st37" points="11.5,15.4 10.5,17.8 12.6,17.8   "></polygon>
		<polygon class="st25" points="18.8,13 19.8,10.5 17.7,10.5   "></polygon>
		<polygon class="st38" points="21.9,15.4 22.9,13 20.8,13   "></polygon>
		<polygon class="st17" points="17.7,10.5 16.7,13 18.8,13   "></polygon>
		<polygon class="st26" points="19.8,10.5 18.8,13 20.8,13   "></polygon>
		<polygon class="st26" points="22.9,13 21.9,15.4 23.9,15.4   "></polygon>
		<polygon class="st39" points="23.9,15.4 25,13 22.9,13   "></polygon>
		<polygon class="st40" points="20.9,13 21.9,10.5 19.8,10.5   "></polygon>
		<polygon class="st27" points="21.9,10.5 20.8,13 22.9,13   "></polygon>
		<polygon class="st38" points="23.9,10.5 22.9,13 25,13   "></polygon>
		<polygon class="st39" points="22.9,13 23.9,10.5 21.9,10.5   "></polygon>
		<polygon class="st40" points="25,13 26,10.5 23.9,10.5   "></polygon>
		<polygon class="st41" points="7.4,15.4 9.5,15.4 8.4,12.9   "></polygon>
		<polygon class="st42" points="8.4,12.9 10.5,12.9 9.5,10.5   "></polygon>
		<polygon class="st43" points="9.5,10.5 11.5,10.5 10.5,8   "></polygon>
		<polygon class="st44" points="10.5,8 12.6,8 11.5,5.6   "></polygon>
		<polygon class="st45" points="11.5,5.6 13.6,5.6 12.6,3.1   "></polygon>
		<g>
			<polygon class="st46" points="9.5,15.4 11.5,15.4 10.5,12.9    "></polygon>
			<polygon class="st47" points="10.5,12.9 12.6,12.9 11.5,10.5    "></polygon>
			<polygon class="st48" points="11.5,10.5 13.6,10.5 12.6,8    "></polygon>
			<polygon class="st49" points="12.6,8 14.6,8 13.6,5.6    "></polygon>
		</g>
		<g>
			<polygon class="st50" points="12.6,12.9 10.5,12.9 11.5,15.4    "></polygon>
			<polygon class="st51" points="13.6,10.5 11.5,10.5 12.6,12.9    "></polygon>
			<polygon class="st52" points="14.6,8 12.6,8 13.6,10.5    "></polygon>
		</g>
		<g>
			<polygon class="st53" points="13.6,5.6 11.5,5.6 12.6,8    "></polygon>
			<polygon class="st54" points="12.6,8 10.5,8 11.5,10.5    "></polygon>
			<polygon class="st55" points="11.5,10.5 9.5,10.5 10.5,12.9    "></polygon>
			<polygon class="st56" points="10.5,12.9 8.4,12.9 9.5,15.4    "></polygon>
		</g>
		<polygon class="st57" points="14.6,3.1 12.6,3.1 13.6,5.6   "></polygon>
		<polygon class="st58" points="15.7,5.6 13.6,5.6 14.6,8   "></polygon>
		<polygon class="st59" points="16.7,8 14.6,8 15.7,10.5   "></polygon>
		<polygon class="st60" points="17.8,10.5 15.7,10.5 16.7,12.9   "></polygon>
		<polygon class="st61" points="18.8,12.9 16.7,12.9 17.8,15.4   "></polygon>
		<polygon class="st62" points="19.8,15.4 17.8,15.4 18.8,17.9   "></polygon>
		<polygon class="st63" points="20.9,17.9 18.8,17.9 19.8,20.3   "></polygon>
		<polygon class="st64" points="21.9,20.3 19.8,20.3 20.9,22.8   "></polygon>
		<polygon class="st65" points="16.7,3.1 14.6,3.1 15.7,5.6   "></polygon>
		<polygon class="st66" points="17.8,5.6 15.7,5.6 16.7,8   "></polygon>
		<polygon class="st67" points="18.8,8 16.7,8 17.8,10.5   "></polygon>
		<polygon class="st68" points="19.8,10.5 17.8,10.5 18.8,12.9   "></polygon>
		<polygon class="st69" points="20.9,12.9 18.8,12.9 19.8,15.4   "></polygon>
		<polygon class="st70" points="21.9,15.4 19.8,15.4 20.9,17.9   "></polygon>
		<polygon class="st71" points="23,17.9 20.9,17.9 21.9,20.3   "></polygon>
		<polygon class="st72" points="24,20.3 21.9,20.3 23,22.8   "></polygon>
		<polygon class="st73" points="13.6,5.6 15.7,5.6 14.6,3.1   "></polygon>
		<polygon class="st74" points="14.6,8 16.7,8 15.7,5.6   "></polygon>
		<polygon class="st75" points="15.7,10.5 17.8,10.5 16.7,8   "></polygon>
		<polygon class="st76" points="16.7,12.9 18.8,12.9 17.8,10.5   "></polygon>
		<polygon class="st77" points="17.8,15.4 19.8,15.4 18.8,12.9   "></polygon>
		<polygon class="st78" points="18.8,17.9 20.9,17.9 19.8,15.4   "></polygon>
		<polygon class="st79" points="19.8,20.3 21.9,20.3 20.9,17.9   "></polygon>
		<polygon class="st80" points="20.9,22.8 23,22.8 21.9,20.3   "></polygon>
		<polygon class="st81" points="15.7,5.6 17.8,5.6 16.7,3.1   "></polygon>
		<polygon class="st82" points="16.7,8 18.8,8 17.8,5.6   "></polygon>
		<polygon class="st83" points="17.8,10.5 19.8,10.5 18.8,8   "></polygon>
		<polygon class="st84" points="18.8,12.9 20.9,12.9 19.8,10.5   "></polygon>
		<polygon class="st85" points="19.8,15.4 21.9,15.4 20.9,12.9   "></polygon>
		<polygon class="st86" points="20.9,17.9 23,17.9 21.9,15.4   "></polygon>
		<polygon class="st87" points="21.9,20.3 24,20.3 23,17.9   "></polygon>
		<polygon class="st88" points="23,22.8 25,22.8 24,20.3   "></polygon>
		<polygon class="st57" points="12.6,3.1 10.5,3.1 11.5,5.6   "></polygon>
		<polygon class="st58" points="13.6,5.6 11.5,5.6 12.6,8   "></polygon>
		<polygon class="st59" points="14.6,8 12.6,8 13.6,10.5   "></polygon>
		<polygon class="st60" points="15.7,10.5 13.6,10.5 14.6,12.9   "></polygon>
		<polygon class="st61" points="16.7,12.9 14.6,12.9 15.7,15.4   "></polygon>
		<polygon class="st62" points="17.8,15.4 15.7,15.4 16.7,17.8   "></polygon>
		<polygon class="st63" points="18.8,17.8 16.7,17.8 17.8,20.3   "></polygon>
		<polygon class="st64" points="19.8,20.3 17.8,20.3 18.8,22.7   "></polygon>
		<polygon class="st64" points="20.8,22.7 18.8,22.7 19.8,25.2   "></polygon>
		<g>
			<polygon class="st41" points="5.3,15.4 7.4,15.4 6.3,12.9    "></polygon>
			<polygon class="st42" points="6.3,12.9 8.4,12.9 7.4,10.5    "></polygon>
			<polygon class="st43" points="7.4,10.5 9.5,10.5 8.4,8    "></polygon>
			<polygon class="st89" points="8.4,8 10.5,8 9.5,5.6    "></polygon>
			<polygon class="st90" points="9.5,5.6 11.5,5.6 10.5,3.1    "></polygon>
		</g>
		<polygon class="st91" points="11.5,5.6 9.5,5.6 10.5,8   "></polygon>
		<polygon class="st55" points="10.5,8 8.4,8 9.5,10.5   "></polygon>
		<polygon class="st55" points="9.5,10.5 7.4,10.5 8.4,12.9   "></polygon>
		<polygon class="st56" points="8.4,12.9 6.3,12.9 7.4,15.4   "></polygon>
		<polygon class="st73" points="11.5,5.6 13.6,5.6 12.6,3.1   "></polygon>
		<polygon class="st74" points="12.6,8 14.6,8 13.6,5.6   "></polygon>
		<polygon class="st75" points="13.6,10.5 15.7,10.5 14.6,8   "></polygon>
		<polygon class="st76" points="14.6,12.9 16.7,12.9 15.7,10.5   "></polygon>
		<polygon class="st77" points="15.7,15.4 17.8,15.4 16.7,12.9   "></polygon>
		<polygon class="st78" points="16.7,17.8 18.8,17.8 17.8,15.4   "></polygon>
		<polygon class="st79" points="17.8,20.3 19.8,20.3 18.8,17.8   "></polygon>
		<polygon class="st80" points="18.8,22.8 20.9,22.8 19.8,20.3   "></polygon>
		<polygon class="st64" points="22.9,22.7 20.9,22.7 21.9,25.2   "></polygon>
		<polygon class="st72" points="25,22.7 22.9,22.7 24,25.2   "></polygon>
		<polygon class="st80" points="21.9,25.2 24,25.2 22.9,22.7   "></polygon>
		<polygon class="st88" points="24,25.2 26,25.2 25,22.7   "></polygon>
		<polygon class="st80" points="19.8,25.2 21.9,25.2 20.8,22.7   "></polygon>
		<polygon class="st79" points="22.9,27.6 24,25.2 21.9,25.2   "></polygon>
		<polygon class="st87" points="25,27.6 26,25.2 24,25.2   "></polygon>
		<polygon class="st80" points="21.9,25.2 20.8,27.6 22.9,27.6   "></polygon>
		<polygon class="st72" points="24,25.2 22.9,27.6 25,27.6   "></polygon>
		<polygon class="st64" points="26,25.2 25,27.6 27.1,27.6   "></polygon>
		<polygon class="st80" points="22.9,27.6 21.9,30.1 24,30.1   "></polygon>
		<polygon class="st72" points="25,27.6 24,30.1 26,30.1   "></polygon>
		<polygon class="st64" points="27.1,27.6 26,30.1 28.1,30.1   "></polygon>
		<polygon class="st79" points="21.9,30.1 22.9,27.6 20.9,27.6   "></polygon>
		<polygon class="st79" points="20.8,27.6 21.9,25.2 19.8,25.2   "></polygon>
		<polygon class="st79" points="24,30.1 25,27.6 22.9,27.6   "></polygon>
		<polygon class="st87" points="26,30.1 27.1,27.6 25,27.6   "></polygon>
	</g>
</g>
</svg>