{
  "accessors": [
    {
      "bufferView": 2,
      "componentType": 5126,
      "count": 136,
      "max": [
        -22.50798225402832,
        10.400749206542969,
        18.289482116699219
      ],
      "min": [
        -22.911670684814453,
        6.7970027923583984,
        10.405618667602539
      ],
      "type": "VEC3"
    },
    {
      "bufferView": 2,
      "byteOffset": 1632,
      "componentType": 5126,
      "count": 136,
      "max": [
        0.88497763872146606,
        0.95596402883529663,
        0.94550943374633789
      ],
      "min": [
        -0.98997217416763306,
        -0.94267129898071289,
        -0.94551259279251099
      ],
      "type": "VEC3"
    },
    {
      "bufferView": 1,
      "componentType": 5126,
      "count": 136,
      "max": [
        2.6704652309417725,
        2.3939743041992188
      ],
      "min": [
        -1.4170153141021729,
        -0.0038401649799197912
      ],
      "type": "VEC2"
    },
    {
      "bufferView": 0,
      "componentType": 5125,
      "count": 432,
      "max": [
        135
      ],
      "min": [
        0
      ],
      "type": "SCALAR"
    },
    {
      "bufferView": 2,
      "byteOffset": 3264,
      "componentType": 5126,
      "count": 28,
      "max": [
        -22.763832092285156,
        10.022150993347168,
        17.908649444580078
      ],
      "min": [
        -22.940479278564453,
        7.1821002960205078,
        10.78645133972168
      ],
      "type": "VEC3"
    },
    {
      "bufferView": 2,
      "byteOffset": 3600,
      "componentType": 5126,
      "count": 28,
      "max": [
        -0.80196583271026611,
        0.59717494249343872,
        0.52272903919219971
      ],
      "min": [
        -0.99977505207061768,
        -0.56261628866195679,
        -0.52272909879684448
      ],
      "type": "VEC3"
    },
    {
      "bufferView": 1,
      "byteOffset": 1088,
      "componentType": 5126,
      "count": 28,
      "max": [
        0.99286282062530518,
        0.99837976694107056
      ],
      "min": [
        0.010181218385696411,
        0.010752558708190918
      ],
      "type": "VEC2"
    },
    {
      "bufferView": 0,
      "byteOffset": 1728,
      "componentType": 5125,
      "count": 126,
      "max": [
        27
      ],
      "min": [
        0
      ],
      "type": "SCALAR"
    },
    {
      "bufferView": 2,
      "byteOffset": 3936,
      "componentType": 5126,
      "count": 7722,
      "max": [
        22.733171463012695,
        16.743242263793945,
        25.737957000732422
      ],
      "min": [
        -22.733173370361328,
        0.29260909557342529,
        -24.0511474609375
      ],
      "type": "VEC3"
    },
    {
      "bufferView": 2,
      "byteOffset": 96600,
      "componentType": 5126,
      "count": 7722,
      "max": [
        0.9999992847442627,
        0.99951887130737305,
        0.99999839067459106
      ],
      "min": [
        -0.9999992847442627,
        -0.99992424249649048,
        -0.99999874830245972
      ],
      "type": "VEC3"
    },
    {
      "bufferView": 1,
      "byteOffset": 1312,
      "componentType": 5126,
      "count": 7722,
      "max": [
        39.687515258789062,
        136.9793701171875
      ],
      "min": [
        -39.415367126464844,
        -135.97943115234375
      ],
      "type": "VEC2"
    },
    {
      "bufferView": 1,
      "byteOffset": 63088,
      "componentType": 5126,
      "count": 7722,
      "max": [
        39.687515258789062,
        136.9793701171875
      ],
      "min": [
        -39.415367126464844,
        -135.97943115234375
      ],
      "type": "VEC2"
    },
    {
      "bufferView": 0,
      "byteOffset": 2232,
      "componentType": 5125,
      "count": 44544,
      "max": [
        7721
      ],
      "min": [
        0
      ],
      "type": "SCALAR"
    },
    {
      "bufferView": 2,
      "byteOffset": 189264,
      "componentType": 5126,
      "count": 546,
      "max": [
        22.162424087524414,
        2.0861506462097168,
        24.640598297119141
      ],
      "min": [
        -22.162422180175781,
        0.29614895582199097,
        -23.630884170532227
      ],
      "type": "VEC3"
    },
    {
      "bufferView": 2,
      "byteOffset": 195816,
      "componentType": 5126,
      "count": 546,
      "max": [
        0.99558526277542114,
        0.77777379751205444,
        0.81393939256668091
      ],
      "min": [
        -0.99558508396148682,
        -0.89821541309356689,
        -0.99987542629241943
      ],
      "type": "VEC3"
    },
    {
      "bufferView": 1,
      "byteOffset": 124864,
      "componentType": 5126,
      "count": 546,
      "max": [
        6.8017678260803223,
        0.87472939491271973
      ],
      "min": [
        -6.2317261695861816,
        0.072279959917068481
      ],
      "type": "VEC2"
    },
    {
      "bufferView": 1,
      "byteOffset": 129232,
      "componentType": 5126,
      "count": 546,
      "max": [
        6.8017678260803223,
        0.87472939491271973
      ],
      "min": [
        -6.2317261695861816,
        0.072279959917068481
      ],
      "type": "VEC2"
    },
    {
      "bufferView": 0,
      "byteOffset": 180408,
      "componentType": 5125,
      "count": 2736,
      "max": [
        545
      ],
      "min": [
        0
      ],
      "type": "SCALAR"
    },
    {
      "bufferView": 2,
      "byteOffset": 202368,
      "componentType": 5126,
      "count": 4609,
      "max": [
        21.6572265625,
        17.870670318603516,
        24.608684539794922
      ],
      "min": [
        -21.6572265625,
        6.0806398391723633,
        -23.667707443237305
      ],
      "type": "VEC3"
    },
    {
      "bufferView": 2,
      "byteOffset": 257676,
      "componentType": 5126,
      "count": 4609,
      "max": [
        0.99964219331741333,
        1,
        0.99868267774581909
      ],
      "min": [
        -0.99964219331741333,
        -0.66217237710952759,
        -0.99999707937240601
      ],
      "type": "VEC3"
    },
    {
      "bufferView": 1,
      "byteOffset": 133600,
      "componentType": 5126,
      "count": 4609,
      "max": [
        5.5260076522827148,
        6.1985859870910645
      ],
      "min": [
        -4.6422386169433594,
        -5.1985912322998047
      ],
      "type": "VEC2"
    },
    {
      "bufferView": 0,
      "byteOffset": 191352,
      "componentType": 5125,
      "count": 26880,
      "max": [
        4608
      ],
      "min": [
        0
      ],
      "type": "SCALAR"
    },
    {
      "bufferView": 2,
      "byteOffset": 312984,
      "componentType": 5126,
      "count": 1371,
      "max": [
        21.729990005493164,
        0.80399692058563232,
        23.855937957763672
      ],
      "min": [
        -21.729990005493164,
        -2.0936846570179508e-16,
        -23.092428207397461
      ],
      "type": "VEC3"
    },
    {
      "bufferView": 2,
      "byteOffset": 329436,
      "componentType": 5126,
      "count": 1371,
      "max": [
        0.96375638246536255,
        0.96726834774017334,
        0.96474963426589966
      ],
      "min": [
        -0.96375340223312378,
        -1,
        -0.97569704055786133
      ],
      "type": "VEC3"
    },
    {
      "bufferView": 1,
      "byteOffset": 170472,
      "componentType": 5126,
      "count": 1371,
      "max": [
        4.7664976119995117,
        5.1675806045532227
      ],
      "min": [
        -3.8441348075866699,
        -4.1676688194274902
      ],
      "type": "VEC2"
    },
    {
      "bufferView": 0,
      "byteOffset": 298872,
      "componentType": 5125,
      "count": 6420,
      "max": [
        1370
      ],
      "min": [
        0
      ],
      "type": "SCALAR"
    },
    {
      "bufferView": 2,
      "byteOffset": 345888,
      "componentType": 5126,
      "count": 525,
      "max": [
        5.1205687522888184,
        -0.17451190948486328,
        29.746919631958008
      ],
      "min": [
        -5.1205687522888184,
        -2.393305778503418,
        28.0479736328125
      ],
      "type": "VEC3"
    },
    {
      "bufferView": 2,
      "byteOffset": 352188,
      "componentType": 5126,
      "count": 525,
      "max": [
        1,
        0.94966715574264526,
        0.99612891674041748
      ],
      "min": [
        -1,
        -0.94966685771942139,
        -0.9922298789024353
      ],
      "type": "VEC3"
    },
    {
      "bufferView": 1,
      "byteOffset": 181440,
      "componentType": 5126,
      "count": 525,
      "max": [
        0.625,
        0.25
      ],
      "min": [
        0.375,
        0
      ],
      "type": "VEC2"
    },
    {
      "bufferView": 0,
      "byteOffset": 324552,
      "componentType": 5125,
      "count": 2340,
      "max": [
        524
      ],
      "min": [
        0
      ],
      "type": "SCALAR"
    },
    {
      "bufferView": 2,
      "byteOffset": 358488,
      "componentType": 5126,
      "count": 674,
      "max": [
        8.2930030822753906,
        0.50976765155792236,
        29.442523956298828
      ],
      "min": [
        -8.2930030822753906,
        -2.312281608581543,
        23.743324279785156
      ],
      "type": "VEC3"
    },
    {
      "bufferView": 2,
      "byteOffset": 366576,
      "componentType": 5126,
      "count": 674,
      "max": [
        0.99967402219772339,
        0.99758660793304443,
        0.97183126211166382
      ],
      "min": [
        -0.99967390298843384,
        -0.997763991355896,
        -0.96799290180206299
      ],
      "type": "VEC3"
    },
    {
      "bufferView": 3,
      "componentType": 5126,
      "count": 674,
      "max": [
        0.99999958276748657,
        0.99649256467819214,
        0.99770545959472656,
        1
      ],
      "min": [
        -0.99999958276748657,
        -0.99318611621856689,
        -0.95804429054260254,
        -1
      ],
      "type": "VEC4"
    },
    {
      "bufferView": 1,
      "byteOffset": 185640,
      "componentType": 5126,
      "count": 674,
      "max": [
        1.5914599895477295,
        3.0549125671386719
      ],
      "min": [
        -1.0150148868560791,
        -2.2203922271728516
      ],
      "type": "VEC2"
    },
    {
      "bufferView": 0,
      "byteOffset": 333912,
      "componentType": 5125,
      "count": 2280,
      "max": [
        673
      ],
      "min": [
        0
      ],
      "type": "SCALAR"
    },
    {
      "bufferView": 2,
      "byteOffset": 374664,
      "componentType": 5126,
      "count": 2748,
      "max": [
        1.4980583190917969,
        1.6576656103134155,
        -23.421337127685547
      ],
      "min": [
        -1.1465146541595459,
        -1.745181679725647,
        -24.666889190673828
      ],
      "type": "VEC3"
    },
    {
      "bufferView": 2,
      "byteOffset": 407640,
      "componentType": 5126,
      "count": 2748,
      "max": [
        0.99842429161071777,
        0.99304252862930298,
        0.9999396800994873
      ],
      "min": [
        -0.99897915124893188,
        -0.99689954519271851,
        -0.99998730421066284
      ],
      "type": "VEC3"
    },
    {
      "bufferView": 1,
      "byteOffset": 191032,
      "componentType": 5126,
      "count": 2748,
      "max": [
        1,
        1
      ],
      "min": [
        0,
        0
      ],
      "type": "VEC2"
    },
    {
      "bufferView": 0,
      "byteOffset": 343032,
      "componentType": 5125,
      "count": 4116,
      "max": [
        2747
      ],
      "min": [
        0
      ],
      "type": "SCALAR"
    }
  ],
  "asset": {
    "extras": {
      "author": "Medifab (https://sketchfab.com/medifab)",
      "license": "COPYRIGHT TO Medifab",
      "source": "https://sketchfab.com/3d-models/spex-cushion-ar-75038dc4c2e645fc87ce5a12e4e4d5e6",
      "title": "Spex cushion AR"
    },
    "generator": "Sketchfab-9.62.0",
    "version": "2.0"
  },
  "bufferViews": [
    {
      "buffer": 0,
      "byteLength": 359496,
      "byteOffset": 0,
      "name": "floatBufferViews",
      "target": 34963
    },
    {
      "buffer": 0,
      "byteLength": 213016,
      "byteOffset": 359496,
      "byteStride": 8,
      "name": "floatBufferViews",
      "target": 34962
    },
    {
      "buffer": 0,
      "byteLength": 440616,
      "byteOffset": 572512,
      "byteStride": 12,
      "name": "floatBufferViews",
      "target": 34962
    },
    {
      "buffer": 0,
      "byteLength": 10784,
      "byteOffset": 1013128,
      "byteStride": 16,
      "name": "floatBufferViews",
      "target": 34962
    }
  ],
  "buffers": [
    {
      "byteLength": 1023912,
      "uri": "scene.bin"
    }
  ],
  "images": [
    {
      "uri": "textures/label1_baseColor.jpeg"
    },
    {
      "uri": "textures/strap1_normal.png"
    }
  ],
  "materials": [
    {
      "doubleSided": true,
      "emissiveFactor": [
        0,
        0,
        0
      ],
      "name": "top_cloth_M",
      "pbrMetallicRoughness": {
        "baseColorFactor": [
          0.123377,
          0.123377,
          0.123377,
          1
        ],
        "metallicFactor": 0,
        "roughnessFactor": 0.99536673015923793
      }
    },
    {
      "doubleSided": true,
      "emissiveFactor": [
        0,
        0,
        0
      ],
      "name": "label1",
      "pbrMetallicRoughness": {
        "baseColorFactor": [
          1,
          1,
          1,
          1
        ],
        "baseColorTexture": {
          "index": 0,
          "texCoord": 0
        },
        "metallicFactor": 0,
        "roughnessFactor": 0.89426287365594359
      }
    },
    {
      "doubleSided": true,
      "emissiveFactor": [
        0,
        0,
        0
      ],
      "name": "color_cloth_M",
      "pbrMetallicRoughness": {
        "baseColorFactor": [
          0.25974000000000003,
          0.25974000000000003,
          0.25974000000000003,
          1
        ],
        "metallicFactor": 0,
        "roughnessFactor": 0.89426287365594359
      }
    },
    {
      "doubleSided": true,
      "emissiveFactor": [
        0,
        0,
        0
      ],
      "name": "zipper_M",
      "pbrMetallicRoughness": {
        "baseColorFactor": [
          0.18831200000000001,
          0.18831200000000001,
          0.18831200000000001,
          1
        ],
        "metallicFactor": 0,
        "roughnessFactor": 0.89426287365594359
      }
    },
    {
      "doubleSided": true,
      "emissiveFactor": [
        0,
        0,
        0
      ],
      "name": "plastic_black",
      "pbrMetallicRoughness": {
        "baseColorFactor": [
          0.12720300000000001,
          0.13328999999999999,
          0.145399,
          1
        ],
        "metallicFactor": 0,
        "roughnessFactor": 0.8669678106937706
      }
    },
    {
      "doubleSided": true,
      "emissiveFactor": [
        0,
        0,
        0
      ],
      "name": "strap1",
      "normalTexture": {
        "index": 1,
        "scale": 1,
        "texCoord": 0
      },
      "pbrMetallicRoughness": {
        "baseColorFactor": [
          0.5,
          0.5,
          0.5,
          1
        ],
        "metallicFactor": 0,
        "roughnessFactor": 0.89426287365594359
      }
    },
    {
      "doubleSided": true,
      "emissiveFactor": [
        0,
        0,
        0
      ],
      "name": "zippersSG1",
      "pbrMetallicRoughness": {
        "baseColorFactor": [
          0.040000000000000001,
          0.040000000000000001,
          0.040000000000000001,
          1
        ],
        "metallicFactor": 0,
        "roughnessFactor": 0.99577051494623769
      }
    }
  ],
  "meshes": [
    {
      "name": "label_top_cloth_M_0",
      "primitives": [
        {
          "attributes": {
            "NORMAL": 1,
            "POSITION": 0,
            "TEXCOORD_0": 2
          },
          "indices": 3,
          "material": 0,
          "mode": 4
        }
      ]
    },
    {
      "name": "label_label1_0",
      "primitives": [
        {
          "attributes": {
            "NORMAL": 5,
            "POSITION": 4,
            "TEXCOORD_0": 6
          },
          "indices": 7,
          "material": 1,
          "mode": 4
        }
      ]
    },
    {
      "name": "cloth1_color_cloth_M_0",
      "primitives": [
        {
          "attributes": {
            "NORMAL": 9,
            "POSITION": 8,
            "TEXCOORD_0": 10,
            "TEXCOORD_1": 11
          },
          "indices": 12,
          "material": 2,
          "mode": 4
        }
      ]
    },
    {
      "name": "zipline_zipper_M_0",
      "primitives": [
        {
          "attributes": {
            "NORMAL": 14,
            "POSITION": 13,
            "TEXCOORD_0": 15,
            "TEXCOORD_1": 16
          },
          "indices": 17,
          "material": 3,
          "mode": 4
        }
      ]
    },
    {
      "name": "cloth2_top_cloth_M_0",
      "primitives": [
        {
          "attributes": {
            "NORMAL": 19,
            "POSITION": 18,
            "TEXCOORD_0": 20
          },
          "indices": 21,
          "material": 0,
          "mode": 4
        }
      ]
    },
    {
      "name": "cloth3_top_cloth_M_0",
      "primitives": [
        {
          "attributes": {
            "NORMAL": 23,
            "POSITION": 22,
            "TEXCOORD_0": 24
          },
          "indices": 25,
          "material": 0,
          "mode": 4
        }
      ]
    },
    {
      "name": "handle_plastic_black_0",
      "primitives": [
        {
          "attributes": {
            "NORMAL": 27,
            "POSITION": 26,
            "TEXCOORD_0": 28
          },
          "indices": 29,
          "material": 4,
          "mode": 4
        }
      ]
    },
    {
      "name": "handle_strap1_0",
      "primitives": [
        {
          "attributes": {
            "NORMAL": 31,
            "POSITION": 30,
            "TANGENT": 32,
            "TEXCOORD_0": 33
          },
          "indices": 34,
          "material": 5,
          "mode": 4
        }
      ]
    },
    {
      "name": "zips_zippersSG1_0",
      "primitives": [
        {
          "attributes": {
            "NORMAL": 36,
            "POSITION": 35,
            "TEXCOORD_0": 37
          },
          "indices": 38,
          "material": 6,
          "mode": 4
        }
      ]
    }
  ],
  "nodes": [
    {
      "children": [
        1
      ],
      "name": "RootNode (gltf orientation matrix)",
      "rotation": [
        -0.70710678118654746,
        -0,
        -0,
        0.70710678118654757
      ]
    },
    {
      "children": [
        2
      ],
      "name": "RootNode (model correction matrix)"
    },
    {
      "children": [
        3
      ],
      "matrix": [
        1,
        0,
        0,
        0,
        0,
        0,
        1,
        0,
        0,
        -1,
        0,
        0,
        0,
        0,
        0,
        1
      ],
      "name": "cushion_01.fbx"
    },
    {
      "children": [
        4
      ],
      "name": "RootNode"
    },
    {
      "children": [
        5,
        8,
        10,
        12,
        14,
        16,
        19
      ],
      "name": "cushion_1"
    },
    {
      "children": [
        6,
        7
      ],
      "name": "label"
    },
    {
      "mesh": 0,
      "name": "label_top_cloth_M_0"
    },
    {
      "mesh": 1,
      "name": "label_label1_0"
    },
    {
      "children": [
        9
      ],
      "name": "cloth1"
    },
    {
      "mesh": 2,
      "name": "cloth1_color_cloth_M_0"
    },
    {
      "children": [
        11
      ],
      "name": "zipline"
    },
    {
      "mesh": 3,
      "name": "zipline_zipper_M_0"
    },
    {
      "children": [
        13
      ],
      "name": "cloth2"
    },
    {
      "mesh": 4,
      "name": "cloth2_top_cloth_M_0"
    },
    {
      "children": [
        15
      ],
      "name": "cloth3"
    },
    {
      "mesh": 5,
      "name": "cloth3_top_cloth_M_0"
    },
    {
      "children": [
        17,
        18
      ],
      "name": "handle"
    },
    {
      "mesh": 6,
      "name": "handle_plastic_black_0"
    },
    {
      "mesh": 7,
      "name": "handle_strap1_0"
    },
    {
      "children": [
        20
      ],
      "name": "zips"
    },
    {
      "mesh": 8,
      "name": "zips_zippersSG1_0"
    }
  ],
  "samplers": [
    {
      "magFilter": 9729,
      "minFilter": 9987,
      "wrapS": 10497,
      "wrapT": 10497
    }
  ],
  "scene": 0,
  "scenes": [
    {
      "name": "OSG_Scene",
      "nodes": [
        0
      ]
    }
  ],
  "textures": [
    {
      "sampler": 0,
      "source": 0
    },
    {
      "sampler": 0,
      "source": 1
    }
  ]
}

