<?xml version="1.0" encoding="utf-8"?>
<!-- Generator: Adobe Illustrator 25.2.0, SVG Export Plug-In . SVG Version: 6.00 Build 0)  -->
<svg version="1.1" id="Layer_1" xmlns="http://www.w3.org/2000/svg" xmlns:xlink="http://www.w3.org/1999/xlink" x="0px" y="0px"
	 viewBox="0 0 1304 615" style="enable-background:new 0 0 1304 615;" xml:space="preserve">
<style type="text/css">
	.st0{fill:#EAAB77;}
	.st1{fill:#F89E58;}
	.st2{fill:#F7B258;}
	.st3{fill:#F9C659;}
	.st4{fill:#F9C762;}
	.st5{fill:#FADA63;}
	.st6{fill:#F8BF39;}
	.st7{fill:#F7AE42;}
	.st8{fill:#F8A059;}
	.st9{fill:#FBCF31;}
	.st10{fill:#F89E45;}
	.st11{fill:#F7995F;}
	.st12{fill:#F9A659;}
	.st13{fill:#D75E38;}
	.st14{fill:#E57025;}
	.st15{fill:#F1BE78;}
	.st16{fill:#F7CA85;}
	.st17{fill:#F7BE58;}
	.st18{fill:#C56028;}
	.st19{fill:#E2613F;}
	.st20{fill:#F0BA7A;}
	.st21{fill:#FBB256;}
	.st22{fill:#E35D25;}
	.st23{fill:#E17826;}
	.st24{fill:#F4C77A;}
	.st25{fill:#F7CF66;}
	.st26{fill:#ECC76A;}
	.st27{fill:#F7D857;}
	.st28{fill:#F9CD57;}
	.st29{fill:#FCC14C;}
	.st30{fill:#F9B353;}
	.st31{fill:#EC6144;}
	.st32{fill:#DE6E26;}
	.st33{fill:#D25642;}
	.st34{fill:#FAEF68;}
	.st35{fill:#FDE01D;}
	.st36{fill:#FFCF3F;}
	.st37{fill:#F8CD4B;}
	.st38{fill:#FDDC56;}
	.st39{fill:#FCD94C;}
	.st40{fill:#C74897;}
	.st41{fill:#A53D8B;}
	.st42{fill:#863582;}
	.st43{fill:#5D3076;}
	.st44{fill:#492B75;}
	.st45{fill:#A9539F;}
	.st46{fill:#834D99;}
	.st47{fill:#6D4599;}
	.st48{fill:#2F3890;}
	.st49{fill:#9866AA;}
	.st50{fill:#72518E;}
	.st51{fill:#472D7B;}
	.st52{fill:#2D2B70;}
	.st53{fill:#623D86;}
	.st54{fill:#87468B;}
	.st55{fill:#B65AA0;}
	.st56{fill:#8C68AB;}
	.st57{fill:#8775B4;}
	.st58{fill:#8080BC;}
	.st59{fill:#798BC5;}
	.st60{fill:#7097CE;}
	.st61{fill:#64A3D8;}
	.st62{fill:#56AEE1;}
	.st63{fill:#43B9EA;}
	.st64{fill:#5B68AF;}
	.st65{fill:#5B72B6;}
	.st66{fill:#597CBD;}
	.st67{fill:#5785C4;}
	.st68{fill:#5290CC;}
	.st69{fill:#4F9AD4;}
	.st70{fill:#4BA5DC;}
	.st71{fill:#47AFE2;}
	.st72{fill:#7462A4;}
	.st73{fill:#6F6DAC;}
	.st74{fill:#6A76B3;}
	.st75{fill:#6280BB;}
	.st76{fill:#5B89C3;}
	.st77{fill:#4F93CC;}
	.st78{fill:#429DD5;}
	.st79{fill:#2EA6DE;}
	.st80{fill:#585FA9;}
	.st81{fill:#5569B0;}
	.st82{fill:#5173B7;}
	.st83{fill:#4C7CBD;}
	.st84{fill:#4585C5;}
	.st85{fill:#3C8ECC;}
	.st86{fill:#3199D4;}
	.st87{fill:#21A2DC;}
	.st88{fill:#692F7C;}
	.st89{fill:#592972;}
	.st90{fill:#533B7A;}
</style>
<g>
	<polygon class="st0" points="698.5,446 721.8,390.9 675.2,390.9 	"/>
	<polygon class="st1" points="535.4,611.1 558.7,556 512.1,556 	"/>
	<polygon class="st2" points="512.1,556 535.4,501 488.8,501 	"/>
	<polygon class="st3" points="488.8,501 512.1,446 465.5,446 	"/>
	<polygon class="st4" points="465.5,446 488.8,390.9 442.2,390.9 	"/>
	<polygon class="st5" points="442.2,390.9 465.5,335.9 418.9,335.9 	"/>
	<polygon class="st5" points="488.8,390.9 512.1,335.9 465.5,335.9 	"/>
	<polygon class="st4" points="512.1,445.9 535.4,390.9 488.8,390.9 	"/>
	<polygon class="st6" points="535.4,501 558.7,446 512.1,446 	"/>
	<polygon class="st7" points="558.7,556 582,501 535.4,501 	"/>
	<polygon class="st8" points="582,611.1 605.3,556 558.7,556 	"/>
	<polygon class="st9" points="512.1,335.9 488.8,390.9 535.4,390.9 	"/>
	<polygon class="st6" points="535.4,390.9 512.1,445.9 558.7,445.9 	"/>
	<polygon class="st6" points="558.7,446 535.4,501 582,501 	"/>
	<polygon class="st7" points="582,501 558.7,556 605.3,556 	"/>
	<polygon class="st10" points="605.3,556 582,611.1 628.6,611.1 	"/>
	<polygon class="st11" points="651.9,556 628.6,611.1 675.2,611.1 	"/>
	<polygon class="st10" points="558.7,556 535.4,611.1 582,611.1 	"/>
	<polygon class="st7" points="535.4,501 512.1,556 558.7,556 	"/>
	<polygon class="st6" points="512.1,446 488.8,501 535.4,501 	"/>
	<polygon class="st6" points="488.8,390.9 465.5,446 512.1,446 	"/>
	<polygon class="st9" points="465.5,335.9 442.2,390.9 488.8,390.9 	"/>
	<polygon class="st12" points="605.3,446 582,501 628.6,501 	"/>
	<polygon class="st13" points="652,445.9 628.7,501 675.3,501 	"/>
	<polygon class="st14" points="675.3,390.9 652,445.9 698.6,445.9 	"/>
	<polygon class="st15" points="675.2,280.9 651.9,335.9 698.5,335.9 	"/>
	<polygon class="st12" points="628.6,501 605.3,556 651.9,556 	"/>
	<polygon class="st13" points="675.3,501 652,556 698.6,556 	"/>
	<polygon class="st14" points="698.6,445.9 675.3,501 721.9,501 	"/>
	<polygon class="st15" points="698.5,335.9 675.2,390.9 721.8,390.9 	"/>
	<polygon class="st16" points="721.8,280.9 698.5,335.9 745.1,335.9 	"/>
	<polygon class="st17" points="605.3,556 628.6,501 582,501 	"/>
	<polygon class="st18" points="652,556 675.3,501 628.7,501 	"/>
	<polygon class="st19" points="675.3,501 698.6,445.9 652,445.9 	"/>
	<polygon class="st0" points="675.2,390.9 698.5,335.9 651.9,335.9 	"/>
	<polygon class="st20" points="698.5,335.9 721.8,280.9 675.2,280.9 	"/>
	<polygon class="st21" points="628.6,611.1 651.9,556 605.3,556 	"/>
	<polygon class="st22" points="675.3,611 698.6,556 652,556 	"/>
	<polygon class="st23" points="698.6,556 721.9,501 675.3,501 	"/>
	<polygon class="st20" points="721.8,390.9 745.1,335.9 698.5,335.9 	"/>
	<polygon class="st24" points="745.1,335.9 768.4,280.9 721.8,280.9 	"/>
	<polygon class="st16" points="698.5,225.8 675.2,280.9 721.8,280.9 	"/>
	<polygon class="st25" points="745.1,225.8 721.8,280.9 768.4,280.9 	"/>
	<polygon class="st24" points="721.8,280.9 745.1,225.8 698.5,225.8 	"/>
	<polygon class="st26" points="791.8,335.9 815.1,280.8 768.5,280.8 	"/>
	<polygon class="st27" points="535.3,390.9 558.6,335.9 512,335.9 	"/>
	<polygon class="st28" points="558.6,446 581.9,391 535.3,391 	"/>
	<polygon class="st28" points="581.9,501 605.2,446 558.6,446 	"/>
	<polygon class="st29" points="558.6,335.9 535.3,390.9 581.9,390.9 	"/>
	<polygon class="st30" points="581.9,391 558.6,446 605.2,446 	"/>
	<polygon class="st20" points="675.2,280.9 698.5,225.8 651.9,225.8 	"/>
	<polygon class="st31" points="652,446 675.3,390.9 628.7,390.9 	"/>
	<polygon class="st32" points="652,335.9 628.7,390.9 675.3,390.9 	"/>
	<polygon class="st15" points="651.9,225.8 628.6,280.9 675.2,280.9 	"/>
	<polygon class="st33" points="628.7,501 652,446 605.4,446 	"/>
	<polygon class="st13" points="628.7,390.9 605.4,445.9 652,445.9 	"/>
	<polygon class="st34" points="419,335.9 442.3,280.9 395.7,280.9 	"/>
	<polygon class="st34" points="465.6,335.9 488.9,280.8 442.3,280.8 	"/>
	<polygon class="st35" points="488.9,280.8 465.6,335.9 512.2,335.9 	"/>
	<polygon class="st35" points="442.3,280.9 419,335.9 465.6,335.9 	"/>
	<polygon class="st34" points="512.1,335.9 535.4,280.9 488.8,280.9 	"/>
	<polygon class="st36" points="535.4,280.9 512.1,335.9 558.7,335.9 	"/>
	<polygon class="st24" points="698.6,225.8 721.9,170.8 675.3,170.8 	"/>
	<polygon class="st37" points="768.5,280.8 791.8,225.8 745.2,225.8 	"/>
	<polygon class="st16" points="675.3,170.8 652,225.8 698.6,225.8 	"/>
	<polygon class="st25" points="721.9,170.8 698.6,225.8 745.2,225.8 	"/>
	<polygon class="st25" points="791.8,225.8 768.5,280.9 815.1,280.9 	"/>
	<polygon class="st38" points="815.1,280.8 838.4,225.8 791.8,225.8 	"/>
	<polygon class="st39" points="746.1,225.8 769.4,170.8 722.8,170.8 	"/>
	<polygon class="st26" points="768.6,170.8 745.3,225.8 791.9,225.8 	"/>
	<polygon class="st37" points="815.2,170.8 791.9,225.8 838.5,225.8 	"/>
	<polygon class="st38" points="791.9,225.8 815.2,170.8 768.6,170.8 	"/>
	<polygon class="st39" points="838.4,225.8 861.7,170.8 815.1,170.8 	"/>
	<polygon class="st40" points="441.3,280.7 488.2,280.7 464.8,225.3 	"/>
	<polygon class="st41" points="464.8,225.3 511.6,225.3 488.2,169.9 	"/>
	<polygon class="st42" points="488.2,169.9 535.1,169.9 511.6,114.5 	"/>
	<polygon class="st43" points="511.6,114.5 558.5,114.5 535.1,59.1 	"/>
	<polygon class="st44" points="535.1,59.1 582,59.1 558.5,3.7 	"/>
	<g>
		<polygon class="st45" points="488.2,280.7 535.1,280.7 511.6,225.3 		"/>
		<polygon class="st46" points="511.6,225.3 558.5,225.3 535.1,169.9 		"/>
		<polygon class="st47" points="535.1,169.9 582,169.9 558.5,114.5 		"/>
		<polygon class="st48" points="558.5,114.5 605.4,114.5 582,59.1 		"/>
	</g>
	<g>
		<polygon class="st49" points="558.5,225.3 511.6,225.3 535.1,280.7 		"/>
		<polygon class="st50" points="582,169.9 535.1,169.9 558.5,225.3 		"/>
		<polygon class="st51" points="605.4,114.5 558.5,114.5 582,169.9 		"/>
	</g>
	<g>
		<polygon class="st52" points="582,59.1 535.1,59.1 558.5,114.5 		"/>
		<polygon class="st53" points="558.5,114.5 511.6,114.5 535.1,169.9 		"/>
		<polygon class="st54" points="535.1,169.9 488.2,169.9 511.6,225.3 		"/>
		<polygon class="st55" points="511.6,225.3 464.8,225.3 488.2,280.7 		"/>
	</g>
	<polygon class="st56" points="605.4,3.7 558.5,3.7 582,59.1 	"/>
	<polygon class="st57" points="628.9,59.1 582,59.1 605.4,114.5 	"/>
	<polygon class="st58" points="652.3,114.5 605.4,114.5 628.9,169.9 	"/>
	<polygon class="st59" points="675.7,169.9 628.9,169.9 652.3,225.3 	"/>
	<polygon class="st60" points="699.2,225.3 652.3,225.3 675.7,280.7 	"/>
	<polygon class="st61" points="722.6,280.7 675.7,280.7 699.2,336 	"/>
	<polygon class="st62" points="746.1,336 699.2,336 722.6,391.4 	"/>
	<polygon class="st63" points="769.5,391.4 722.6,391.4 746.1,446.8 	"/>
	<polygon class="st64" points="652.3,3.7 605.4,3.7 628.9,59.1 	"/>
	<polygon class="st65" points="675.7,59.1 628.9,59.1 652.3,114.5 	"/>
	<polygon class="st66" points="699.2,114.5 652.3,114.5 675.7,169.9 	"/>
	<polygon class="st67" points="722.6,169.9 675.7,169.9 699.2,225.3 	"/>
	<polygon class="st68" points="746.1,225.3 699.2,225.3 722.6,280.7 	"/>
	<polygon class="st69" points="769.5,280.7 722.6,280.7 746.1,336 	"/>
	<polygon class="st70" points="793,336 746.1,336 769.5,391.4 	"/>
	<polygon class="st71" points="816.4,391.4 769.5,391.4 793,446.8 	"/>
	<polygon class="st72" points="582,59.1 628.9,59.1 605.4,3.7 	"/>
	<polygon class="st73" points="605.4,114.5 652.3,114.5 628.9,59.1 	"/>
	<polygon class="st74" points="628.9,169.9 675.7,169.9 652.3,114.5 	"/>
	<polygon class="st75" points="652.3,225.3 699.2,225.3 675.7,169.9 	"/>
	<polygon class="st76" points="675.7,280.7 722.6,280.7 699.2,225.3 	"/>
	<polygon class="st77" points="699.2,336 746.1,336 722.6,280.7 	"/>
	<polygon class="st78" points="722.6,391.4 769.5,391.4 746.1,336 	"/>
	<polygon class="st79" points="746.1,446.8 793,446.8 769.5,391.4 	"/>
	<polygon class="st80" points="628.9,59.1 675.7,59.1 652.3,3.7 	"/>
	<polygon class="st81" points="652.3,114.5 699.2,114.5 675.7,59.1 	"/>
	<polygon class="st82" points="675.7,169.9 722.6,169.9 699.2,114.5 	"/>
	<polygon class="st83" points="699.2,225.3 746.1,225.3 722.6,169.9 	"/>
	<polygon class="st84" points="722.6,280.7 769.5,280.7 746.1,225.3 	"/>
	<polygon class="st85" points="746.1,336 793,336 769.5,280.7 	"/>
	<polygon class="st86" points="769.5,391.4 816.4,391.4 793,336 	"/>
	<polygon class="st87" points="793,446.8 839.9,446.8 816.4,391.4 	"/>
	<polygon class="st56" points="558.5,3.7 511.6,3.7 535.1,59.1 	"/>
	<polygon class="st57" points="582,59.1 535.1,59.1 558.5,114.4 	"/>
	<polygon class="st58" points="605.4,114.4 558.5,114.4 582,169.8 	"/>
	<polygon class="st59" points="628.9,169.7 582,169.7 605.4,225.1 	"/>
	<polygon class="st60" points="652.3,225 605.4,225 628.9,280.4 	"/>
	<polygon class="st61" points="675.7,280.3 628.9,280.3 652.3,335.7 	"/>
	<polygon class="st62" points="699.2,335.7 652.3,335.7 675.7,391.1 	"/>
	<polygon class="st63" points="722.6,391 675.7,391 699.2,446.4 	"/>
	<polygon class="st63" points="745.5,445.6 698.6,445.6 722,500.9 	"/>
	<g>
		<polygon class="st40" points="394.4,280.7 441.3,280.7 417.9,225.3 		"/>
		<polygon class="st41" points="417.9,225.3 464.8,225.3 441.3,169.9 		"/>
		<polygon class="st42" points="441.3,169.9 488.2,169.9 464.8,114.5 		"/>
		<polygon class="st88" points="464.8,114.5 511.6,114.5 488.2,59.1 		"/>
		<polygon class="st89" points="488.2,59.1 535.1,59.1 511.6,3.7 		"/>
	</g>
	<polygon class="st90" points="535.1,59.1 488.2,59.1 511.7,114.5 	"/>
	<polygon class="st54" points="511.7,114.5 464.8,114.5 488.2,169.9 	"/>
	<polygon class="st54" points="488.2,169.9 441.3,169.9 464.8,225.3 	"/>
	<polygon class="st55" points="464.8,225.3 417.9,225.3 441.3,280.7 	"/>
	<polygon class="st72" points="534.9,58.9 581.8,58.9 558.4,3.5 	"/>
	<polygon class="st73" points="558.4,114.3 605.3,114.3 581.8,58.9 	"/>
	<polygon class="st74" points="581.8,169.7 628.7,169.7 605.3,114.3 	"/>
	<polygon class="st75" points="605.3,225 652.2,225 628.7,169.7 	"/>
	<polygon class="st76" points="628.7,280.4 675.6,280.4 652.2,225 	"/>
	<polygon class="st77" points="652.2,335.8 699,335.8 675.6,280.4 	"/>
	<polygon class="st78" points="675.6,391.2 722.5,391.2 699,335.8 	"/>
	<polygon class="st79" points="699,446.6 745.9,446.6 722.5,391.2 	"/>
	<polygon class="st63" points="792.5,445.8 745.6,445.8 769.1,501.2 	"/>
	<polygon class="st71" points="839.4,445.8 792.5,445.8 815.9,501.2 	"/>
	<polygon class="st79" points="769.1,501.2 815.9,501.2 792.5,445.8 	"/>
	<polygon class="st87" points="815.9,501.2 862.8,501.2 839.4,445.8 	"/>
	<polygon class="st79" points="722,500.9 768.9,500.9 745.5,445.6 	"/>
	<polygon class="st78" points="792.5,556.6 815.9,501.2 769.1,501.2 	"/>
	<polygon class="st86" points="839.4,556.6 862.8,501.2 815.9,501.2 	"/>
	<polygon class="st79" points="768.9,500.9 745.5,556.3 792.4,556.3 	"/>
	<polygon class="st71" points="815.9,501.2 792.5,556.6 839.4,556.6 	"/>
	<polygon class="st63" points="862.8,501.2 839.4,556.6 886.3,556.6 	"/>
	<polygon class="st79" points="792.4,556.1 768.9,611.5 815.8,611.5 	"/>
	<polygon class="st71" points="839.2,556.1 815.8,611.5 862.7,611.5 	"/>
	<polygon class="st63" points="886.1,556.1 862.7,611.5 909.6,611.5 	"/>
	<polygon class="st78" points="769.1,611.5 792.5,556.1 745.6,556.1 	"/>
	<polygon class="st78" points="745.5,556.3 768.9,500.9 722,500.9 	"/>
	<polygon class="st78" points="815.8,611.5 839.2,556.1 792.4,556.1 	"/>
	<polygon class="st86" points="862.7,611.5 886.1,556.1 839.2,556.1 	"/>
</g>
</svg>
